# xmcd CD database file
#
# Track frame offsets:
#	150
#	14885
#	27972
#	56050
#	80180
#	105016
#	116458
#	124370
#	140904
#	154025
#	165287
#	183278
#	197029
#	212687
#	232750
#	244961
#
# Disc length: 3443 seconds
#
# Revision: 0
# Processed by: cddbd v1.5.1PL0 Copyright (c) Steve Scherf et al.
# Submitted via: CDex 1.50beta9
#
DISCID=d90d7110
DTITLE=Louis Armstrong - High Society, CD 3
DYEAR=2001
DGENRE=Jazz
TTITLE0=You can depend on me
TTITLE1=That's Plenty
TTITLE2=A Monday Date
TTITLE3=Way Down yonder in New Orleans
TTITLE4=Back O'Town Blues
TTITLE5=Hello Dolly
TTITLE6=St. James Infirmary
TTITLE7=Muskrat Ramble
TTITLE8=That's my Desire
TTITLE9=When the Saints go Marching in
TTITLE10=Cabaret
TTITLE11=Give me a Kiss to Build a Dream on
TTITLE12=Mack the Knife
TTITLE13=Basin Street Blues
TTITLE14=When it's sleepy Time Down South
TTITLE15=High Society
EXTD=YEAR: 2001
EXTT0=
EXTT1=
EXTT2=
EXTT3=
EXTT4=
EXTT5=
EXTT6=
EXTT7=
EXTT8=
EXTT9=
EXTT10=
EXTT11=
EXTT12=
EXTT13=
EXTT14=
EXTT15=
PLAYORDER=
